<?xml version="1.0" encoding="UTF-8" standalone="no"?>
<!DOCTYPE svg PUBLIC "-//W3C//DTD SVG 1.1//EN" "http://www.w3.org/Graphics/SVG/1.1/DTD/svg11.dtd">
<svg width="100%" height="100%" viewBox="0 0 168 168" version="1.1" xmlns="http://www.w3.org/2000/svg" xmlns:xlink="http://www.w3.org/1999/xlink" xml:space="preserve" xmlns:serif="http://www.serif.com/" style="fill-rule:evenodd;clip-rule:evenodd;stroke-linejoin:round;stroke-miterlimit:2;">
    <circle cx="83.6" cy="83.6" r="83.6" style="fill:rgb(14,33,31);"/>
    <g transform="matrix(0.898325,0,0,0.898325,8.55,8.505084)">
        <path d="M90.4,29.4C90.4,27.3 90.8,24.2 91.5,20C92.8,12.5 89.8,6.4 84.2,3.1C84.2,3.1 81.7,1.5 77.6,0.1L76.9,1.3C80.2,3.9 80.6,7.7 77.3,16.5C75.2,22.2 75.1,26.4 76.3,29.6C80.9,28.8 85.7,28.8 90.4,29.4ZM58.6,24.5C56,17.3 50.3,13.6 43.8,13.5C43.8,13.5 40.9,13.4 36.6,14.2L36.6,15.6C40.7,16.2 43,19.3 44.5,28.5C45.5,34.5 47.6,38.2 50.2,40.3C54,37.4 58.1,35 62.4,33.2C61.3,31.4 60.1,28.5 58.6,24.5ZM40.1,50.6C38.2,49.6 35.7,47.7 32.4,45C26.6,40.1 19.8,39.7 14.1,42.9C14.1,42.9 11.5,44.3 8.2,47.1L8.9,48.3C12.8,46.8 16.3,48.3 22.2,55.5C26.1,60.2 29.7,62.4 33.1,62.9C34,60.6 35.1,58.4 36.3,56.3C37.5,54.3 38.7,52.4 40.1,50.6ZM29.4,76.9C27.3,76.9 24.2,76.5 20,75.8C12.4,74.5 6.4,77.5 3,83.1C3,83.1 1.4,85.6 0,89.7L1.2,90.4C3.8,87.1 7.6,86.7 16.4,90C22.1,92.1 26.3,92.2 29.5,91C28.8,86.4 28.8,81.6 29.4,76.9ZM24.5,108.7C17.3,111.3 13.6,117 13.5,123.5C13.5,123.5 13.4,126.4 14.2,130.7L15.6,130.7C16.2,126.6 19.3,124.3 28.5,122.8C34.5,121.8 38.2,119.7 40.3,117.1C37.4,113.3 35,109.2 33.2,104.9C31.4,106 28.5,107.2 24.5,108.7ZM50.6,127.2C49.6,129.1 47.7,131.6 45,134.9C40.1,140.7 39.7,147.5 42.9,153.2C42.9,153.2 44.3,155.8 47.1,159.1L48.3,158.4C46.8,154.5 48.3,151 55.5,145.1C60.2,141.2 62.4,137.6 62.9,134.2C60.6,133.3 58.4,132.2 56.3,131C54.3,129.8 52.4,128.6 50.6,127.2ZM76.9,137.9C76.9,140 76.5,143.1 75.8,147.3C74.5,154.8 77.5,160.9 83.1,164.2C83.1,164.2 85.6,165.8 89.7,167.2L90.4,166C87.1,163.4 86.7,159.6 90,150.8C92.1,145.1 92.2,140.9 91,137.7C86.4,138.5 81.6,138.5 76.9,137.9ZM108.7,142.8C111.3,150 117,153.7 123.5,153.8C123.5,153.8 126.4,153.9 130.7,153.1L130.7,151.7C126.6,151.1 124.3,148 122.8,138.8C121.8,132.8 119.7,129.1 117.1,127C113.3,129.9 109.2,132.3 104.9,134.1C106,135.9 107.2,138.8 108.7,142.8ZM127.2,116.7C129.1,117.7 131.6,119.6 134.9,122.3C140.7,127.2 147.5,127.6 153.2,124.4C153.2,124.4 155.8,123 159.1,120.2L158.4,119C154.5,120.5 151,119 145.1,111.8C141.2,107.1 137.6,104.9 134.2,104.4C133.3,106.7 132.2,108.9 131,111C129.8,113 128.6,114.9 127.2,116.7ZM166.1,76.9C163.5,80.2 159.7,80.6 150.9,77.3C145.2,75.2 141,75.1 137.8,76.3C138.4,81 138.5,85.7 137.9,90.5C140,90.5 143.1,90.9 147.3,91.6C154.8,92.9 160.9,89.9 164.2,84.3C164.2,84.3 165.8,81.8 167.2,77.7L166.1,76.9ZM142.8,58.6C150,56 153.7,50.3 153.8,43.8C153.8,43.8 153.9,40.9 153.1,36.6L151.7,36.6C151.1,40.7 148,43 138.8,44.5C132.8,45.5 129.1,47.6 127,50.2C129.9,54 132.3,58.1 134.1,62.4C135.9,61.3 138.8,60.1 142.8,58.6ZM116.7,40.1C117.7,38.2 119.6,35.7 122.3,32.4C127.2,26.6 127.6,19.8 124.4,14.1C124.4,14.1 123,11.5 120.2,8.2L119,8.9C120.5,12.8 119,16.3 111.8,22.2C107.1,26.1 104.9,29.7 104.4,33.1C106.7,34 108.9,35.1 111,36.3C113,37.5 114.9,38.7 116.7,40.1ZM133.3,76.9C132.7,72.5 131.5,68.3 129.8,64.2C128.1,60.2 125.9,56.4 123.2,53C120.5,49.6 117.4,46.5 113.8,43.8C112.2,42.6 110.4,41.4 108.6,40.3C106.6,39.2 104.6,38.2 102.5,37.3C98.3,35.6 94.1,34.5 89.8,33.9C85.5,33.4 81.1,33.4 76.8,34C72.4,34.6 68.2,35.8 64.1,37.5C60.1,39.2 56.3,41.4 52.9,44.1C49.5,46.8 46.4,49.9 43.7,53.5C42.5,55.1 41.3,56.9 40.2,58.7C39.1,60.7 38.1,62.7 37.2,64.8C35.5,69 34.4,73.2 33.8,77.5C33.3,81.8 33.3,86.2 33.9,90.5C34.5,94.9 35.7,99.1 37.4,103.2C39.1,107.2 41.3,111 44,114.4C46.7,117.8 49.8,120.9 53.4,123.6C55,124.8 56.8,126 58.6,127.1C60.6,128.2 62.6,129.2 64.7,130.1C68.9,131.8 73.1,132.9 77.4,133.5C81.7,134 86.1,134 90.4,133.4C94.8,132.8 99,131.6 103.1,129.9C107.1,128.2 110.9,126 114.3,123.3C117.7,120.6 120.8,117.5 123.5,113.9C124.7,112.3 125.9,110.5 127,108.7C128.1,106.7 129.1,104.7 130,102.6C131.7,98.4 132.8,94.2 133.4,89.9C134,85.5 133.9,81.2 133.3,76.9Z" style="fill:rgb(253,210,49);fill-rule:nonzero;"/>
    </g>
</svg>
